<svg width="87" height="87" viewBox="0 0 87 87" fill="none" xmlns="http://www.w3.org/2000/svg">
<path fill-rule="evenodd" clip-rule="evenodd" d="M8.07853 1.36575C10.6886 0.373228 14.1686 0 18.5186 0L43.5 28.9172L68.4818 0C72.9551 0 76.4357 0.620473 78.9211 1.61417C81.5315 2.60668 83.3956 4.09605 84.6384 6.32951C86.2537 8.93619 87 13.0322 87 18.7401V68.3836C87 73.9678 85.7573 78.3122 83.0231 81.5394C80.04 85.1386 75.068 87 68.3568 87V30.4066L18.6428 86.8752H18.5186C11.9314 86.8752 7.08423 85.0138 3.97719 81.4146C1.36711 78.3122 0 73.9678 0 68.2599V18.6165C0 13.0322 0.745752 8.9362 2.23714 6.20589C3.60425 3.97126 5.59284 2.35826 8.07853 1.36575ZM30.5743 43.9344L18.6429 30.2829V57.8344L30.5743 43.9344Z" fill="#282828"/>
</svg>
