<svg width="29" height="31" viewBox="0 0 29 31" fill="none" xmlns="http://www.w3.org/2000/svg">
<path d="M3.97699 11.3606V23.2022M3.97699 11.3606H17.1206M3.97699 11.3606L1 17.4293L1.22357 29.4334M3.97699 23.2022H17.1206M3.97699 23.2022L1.22357 29.4334M17.1206 23.2022V11.3606M17.1206 23.2022L19.8709 29.5M17.1206 11.3606L20.1431 17.4293L19.8709 29.5M1.22357 29.4334L19.8709 29.5M21.5685 1.5C20.9651 6.29142 18.8738 8.81158 15.1507 8.78824C18.3184 9.29383 21.5685 9.6983 21.5685 16.0765C21.5136 10.8417 24.03 8.90492 28 8.78824C24.1946 8.61712 21.4931 6.92924 21.5685 1.5Z" stroke="white" stroke-width="1.6" stroke-linejoin="round"/>
</svg>
