<svg width="33" height="21" viewBox="0 0 33 21" fill="none" xmlns="http://www.w3.org/2000/svg">
<path d="M31.1363 0.742554H1.86374C1.43258 0.743056 1.01923 0.914554 0.71436 1.21943C0.409488 1.5243 0.23799 1.93765 0.237488 2.3688V18.6313C0.23799 19.0625 0.409488 19.4758 0.71436 19.7807C1.01923 20.0856 1.43258 20.2571 1.86374 20.2576H31.1363C31.5674 20.2571 31.9808 20.0856 32.2856 19.7807C32.5905 19.4758 32.762 19.0625 32.7625 18.6313V2.3688C32.762 1.93765 32.5905 1.5243 32.2856 1.21943C31.9808 0.914554 31.5674 0.743056 31.1363 0.742554ZM30.5942 18.0892H2.40582V2.91089H30.5942V18.0892Z" fill="white"/>
<path d="M19.7525 13.7526H8.91083V15.9209H19.7525V13.7526Z" fill="white"/>
<path d="M6.74249 13.7526H4.57416V15.9209H6.74249V13.7526Z" fill="white"/>
<path d="M28.4258 13.7526H26.2575V15.9209H28.4258V13.7526Z" fill="white"/>
<path d="M24.0892 13.7526H21.9208V15.9209H24.0892V13.7526Z" fill="white"/>
<path d="M26.2575 9.41589H24.0892V11.5842H26.2575V9.41589Z" fill="white"/>
<path d="M21.9208 9.41589H19.7525V11.5842H21.9208V9.41589Z" fill="white"/>
<path d="M17.5842 9.41589H15.4158V11.5842H17.5842V9.41589Z" fill="white"/>
<path d="M13.2475 9.41589H11.0792V11.5842H13.2475V9.41589Z" fill="white"/>
<path d="M8.91083 9.41589H6.74249V11.5842H8.91083V9.41589Z" fill="white"/>
<path d="M24.0892 5.07922H21.9208V7.24756H24.0892V5.07922Z" fill="white"/>
<path d="M28.4258 5.07922H26.2575V7.24756H28.4258V5.07922Z" fill="white"/>
<path d="M19.7525 5.07922H17.5842V7.24756H19.7525V5.07922Z" fill="white"/>
<path d="M15.4158 5.07922H13.2475V7.24756H15.4158V5.07922Z" fill="white"/>
<path d="M11.0792 5.07922H8.91083V7.24756H11.0792V5.07922Z" fill="white"/>
<path d="M6.74249 5.07922H4.57416V7.24756H6.74249V5.07922Z" fill="white"/>
</svg>
