<svg width="31" height="31" viewBox="0 0 31 31" fill="none" xmlns="http://www.w3.org/2000/svg">
<path fill-rule="evenodd" clip-rule="evenodd" d="M22.3717 4.15918C25.2075 4.96042 27.4143 7.19178 28.1842 10.0363C28.8466 12.7605 27.9408 15.6273 25.8333 17.4763L16.4429 26.7504C15.9407 27.2427 15.1368 27.2427 14.6346 26.7504L5.16667 17.4763C3.05916 15.6273 2.15335 12.7605 2.81583 10.0363C3.58568 7.19178 5.79253 4.96042 8.62833 4.15918C11.0123 3.50574 13.5651 4.02876 15.5 5.5671C17.4349 4.02876 19.9877 3.50574 22.3717 4.15918ZM15.5 24.025L24.0637 15.6292C25.4683 14.3968 26.0537 12.4753 25.575 10.6692C25.0263 8.72692 23.5113 7.20707 21.5708 6.6521C19.6626 6.14912 17.6329 6.7461 16.3008 8.2021C15.7986 8.69441 14.9948 8.69441 14.4925 8.2021C13.483 7.1302 12.0892 6.50299 10.6175 6.45835C10.1802 6.46526 9.74587 6.53042 9.32583 6.6521C7.38535 7.20707 5.87038 8.72692 5.32167 10.6692C4.86733 12.4952 5.49405 14.4205 6.93625 15.6292L15.5 24.025Z" fill="white"/>
</svg>
