<svg width="27" height="25" viewBox="0 0 27 25" fill="none" xmlns="http://www.w3.org/2000/svg">
<path d="M17.1576 6.61027H18.8457V7.76306M17.1576 6.61027H15.0675H13.6206M17.1576 6.61027V3.80513V1H15.0675H13.6206M9.84244 6.61027V1H12.1736H13.6206M9.84244 6.61027H8.15434V7.76306M9.84244 6.61027H12.1736H13.6206M8.15434 7.76306H18.8457M8.15434 7.76306H5.18006L2.10754 14.3724M18.8457 7.76306H21.8199L24.8925 14.3724M2.10754 14.3724L1 16.7549H8.87781H18.3633H26L24.8925 14.3724M2.10754 14.3724H11.8521V16.7549H15.3891V14.3724H24.8925M4.61736 16.699H1.88424V19.8499L3.2508 24H4.61736M4.61736 16.699V24M4.61736 16.699H13.5804H22.5434M4.61736 24H7.03448H17.1576H22.5434M22.5434 24H23.6688L25.2765 19.8499V16.699H22.5434M22.5434 24V20.3495V16.699M13.6206 1V6.61027" stroke="white" stroke-width="1.7" stroke-linecap="round" stroke-linejoin="round"/>
</svg>
